<svg id="b0f518ab-5b5d-455c-80d6-d1f4c16eb56d" data-name="Layer 1" xmlns="http://www.w3.org/2000/svg" xmlns:xlink="http://www.w3.org/1999/xlink" viewBox="0 0 500 500"><defs><clipPath id="a58e0577-597c-4e99-bbdc-acd152b33a11"><circle cx="250" cy="249" r="250" style="fill:none"/></clipPath></defs><title>bacon-</title><g style="clip-path:url(#a58e0577-597c-4e99-bbdc-acd152b33a11)"><circle cx="250" cy="249" r="250" style="fill:#c7522f"/><path d="M1.13,404.6l-93.62-35.15c21.64-57.62,55-100.57,99.24-127.66,31.22-19.12,57.66-23.9,77-27.39,17.79-3.22,21.81-4.35,28-10.16,9.63-9.1,11.67-19.74,15-41.05,4.17-26.59,10.48-66.76,49.59-94.77,30.33-21.72,59.56-21,78.92-20.5,13,.32,19.6.32,27.53-3.34C304.61,34.49,322.53.55,333.22-51l97.92,20.31c-9.46,45.59-23.35,81.53-42.48,109.88-17.32,25.67-38.86,44.57-64,56.18-29.43,13.58-55,12.93-71.95,12.51-14.48-.37-15.72.07-18.17,1.83-4.2,3-5.72,7.88-9,29-4.08,26-10.25,65.29-45.15,98.24-28.29,26.72-57.5,32-78.82,35.85-15.25,2.76-27.29,4.94-42.52,14.27C34.21,342.24,14.75,368.33,1.13,404.6Z" style="fill:#f58675"/><path d="M136.9,540.36,43.28,505.21c21.63-57.62,55-100.57,99.24-127.65,31.22-19.12,57.66-23.9,77-27.39,17.79-3.22,21.81-4.36,28-10.17,9.63-9.09,11.66-19.74,15-41.05,4.17-26.58,10.49-66.75,49.59-94.76,30.33-21.73,59.57-21,78.92-20.51,13,.33,19.6.32,27.54-3.34,21.86-10.09,39.79-44,50.48-95.57l97.91,20.31c-9.45,45.59-23.35,81.54-42.48,109.89-17.32,25.66-38.85,44.56-64,56.17-29.43,13.58-55,12.94-72,12.51-14.49-.36-15.73.08-18.17,1.83-4.21,3-5.73,7.89-9,29-4.09,26-10.26,65.3-45.15,98.24-28.3,26.72-57.5,32-78.82,35.86-15.25,2.76-27.3,4.94-42.53,14.26C170,478,150.51,504.09,136.9,540.36Z" style="fill:#f58675"/></g></svg>