<svg id="be7cc0b5-53a7-424d-bd0a-e5b3d22b7408" data-name="Layer 1" xmlns="http://www.w3.org/2000/svg" xmlns:xlink="http://www.w3.org/1999/xlink" viewBox="0 0 500 500"><defs><clipPath id="ea7c7215-ccf2-4143-9997-18b6c9df66e6"><circle cx="250" cy="782" r="250" style="fill:none"/></clipPath></defs><title>cheese-</title><path d="M250,0C111.93,0,0,111.93,0,250S111.93,500,250,500,500,388.07,500,250,388.07,0,250,0ZM130,173a60,60,0,1,1,60,60A60,60,0,0,1,130,173ZM273.77,411.92a36,36,0,1,1-30.86-40.49A36,36,0,0,1,273.77,411.92ZM423.21,239.73A49.55,49.55,0,1,1,380.73,184,49.56,49.56,0,0,1,423.21,239.73Z" style="fill:#fd7"/><g style="clip-path:url(#ea7c7215-ccf2-4143-9997-18b6c9df66e6)"><path d="M382.18,492.16C364.66,576.61,332.6,609.64,303.69,623c-39.7,18.31-66.46-3.71-98.29,19.09-44,31.51-14.27,88.91-59.39,131.52-33.4,31.53-64.36,14-113.14,43.84-44,27-66.47,70.43-78.55,102.59" style="fill:none;stroke:#f58675;stroke-miterlimit:10;stroke-width:100px"/></g></svg>