<svg id="a7c3079b-7706-4daf-aedf-a40345c2a188" data-name="Layer 1" xmlns="http://www.w3.org/2000/svg" viewBox="0 0 500 500"><title>lettuce-</title><circle cx="250" cy="250" r="250" style="fill:#85ca9b"/><path d="M250,495.92c-21.47-126.24-64.79-171.76-104-188-47.75-19.74-104.94-2.47-118.24-30.6C20,260.87,29.44,233.54,47.31,224,88.86,201.83,159.8,284.45,185.1,265.1c10.55-8.07,9.62-31.16,1.78-47.21-24.31-49.78-117.59-37.13-122.68-68.2-1.7-10.34,7-21.87,16-27.11,36.25-21,102.15,45.5,116.46,32.35,13.08-12-38.57-70.83-21.34-94.42,11.39-15.6,47.86-8.92,74.68-1.75Z" style="fill:#c9e6d3"/><path d="M250,495.92c21.47-126.24,64.79-171.76,104-188,47.75-19.74,104.94-2.47,118.24-30.6,7.79-16.47-1.69-43.8-19.56-53.33C411.14,201.83,340.2,284.45,314.9,265.1c-10.55-8.07-9.62-31.16-1.78-47.21,24.31-49.78,117.59-37.13,122.68-68.2,1.7-10.34-7-21.87-16-27.11-36.25-21-102.15,45.5-116.46,32.35-13.08-12,38.57-70.83,21.34-94.42-11.39-15.6-47.86-8.92-74.68-1.75Z" style="fill:#c9e6d3"/></svg>