<svg id="fa0af760-452d-487d-b288-3366dbd437e0" xmlns="http://www.w3.org/2000/svg" viewBox="0 0 500 500"><title>tomat-</title><circle cx="250" cy="250" r="250" style="fill:#db4041"/><circle cx="250" cy="250" r="223" style="fill:#eca88b"/><path d="M223,145c3.58-18.17,9.5-50.36-8-66-12.23-10.93-30.42-8.86-38-8-45.28,5.15-73.61,49-84,65-31.82,49.17-31.42,99.29-31,112,2.34,71,42.88,117.31,56,131,10.87,11.35,57.94,60.48,88,47s37-87.16,7-124c-16.15-19.85-31.28-14.61-38-31C162.85,241.38,209,216.27,223,145Z" style="fill:#db4041"/><path d="M277.54,147c-3.56-18.17-9.46-50.36,8-66,12.19-10.93,30.3-8.86,37.85-8,45.1,5.15,73.32,49,83.67,65,31.69,49.17,31.29,99.29,30.88,112-2.33,71-42.72,117.31-55.78,131-10.83,11.35-57.71,60.48-87.66,47s-36.82-87.16-7-124c16.09-19.85,31.16-14.61,37.85-31C337.45,243.38,291.52,218.27,277.54,147Z" style="fill:#db4041"/></svg>