<svg id="b83a2042-c59e-4298-875b-23e9314f9b61" data-name="Layer 1" xmlns="http://www.w3.org/2000/svg" viewBox="0 0 420 243"><title>burger menu-</title><path d="M55.72,81h0a11.29,11.29,0,0,0-2.32-3.59,10.65,10.65,0,0,0-3.54-2.48,9.5,9.5,0,0,0-4.53-.72A10.48,10.48,0,0,0,40.4,76a13.92,13.92,0,0,0-5,5.76c-.08.16-.15.33-.23.49.4-5.84,1-12,2-18.38a204.34,204.34,0,0,1,4.66-23c.56-2.27-.2-3.5-.94-4.13a4.61,4.61,0,0,0-3.5-1,7.94,7.94,0,0,0-3.75,1.44A7.68,7.68,0,0,0,30.69,41c-.09.26-.29.93-1,3.76-.51,2.08-1.09,4.8-1.72,8.08s-1.32,7.08-2,11.26-1.28,8.72-1.75,13.41-.8,9.5-1,14.38a120.35,120.35,0,0,0,.26,14.29,78.75,78.75,0,0,0,2.07,13A35.24,35.24,0,0,0,30,129.84,29.15,29.15,0,0,0,32.39,133a9.72,9.72,0,0,0,3.7,2.69,9,9,0,0,0,3.55.67,12.48,12.48,0,0,0,1.58-.11,14.84,14.84,0,0,0,6.54-3,17.82,17.82,0,0,0,3.83-3.94A34.34,34.34,0,0,0,55.27,123a49.35,49.35,0,0,0,2.9-8.35,52.17,52.17,0,0,0,1.48-10,56.62,56.62,0,0,0-.57-11.33A56,56,0,0,0,55.72,81ZM40.28,102.75c1.56-.77,1.48-2.91,1.45-3.61,0-1.2,0-2.63.05-4.24a19.77,19.77,0,0,1,.83-4.73,6.71,6.71,0,0,1,2.59-3.56c1-.77,1.29-.47,1.56-.16A10.24,10.24,0,0,1,48.58,91a44.19,44.19,0,0,1,.7,8.19,64.72,64.72,0,0,1-.7,9.5,50.81,50.81,0,0,1-2.11,8.84,17,17,0,0,1-3.29,6c-1.81,2-2.56,1.38-3,1-.85-.7-2.1-2.42-3.18-6.59a80.88,80.88,0,0,1-2-13.79q-.11-1.56-.18-3.18a10,10,0,0,0,1.27,1.31A3.74,3.74,0,0,0,40.28,102.75Z" style="fill:#c1272d"/><path d="M71.2,117.84h0a12.4,12.4,0,0,0,5.13-2.28,20.24,20.24,0,0,0,4.18-4.19A37.62,37.62,0,0,0,83.87,106c.38-.75.74-1.5,1.07-2.27a12.5,12.5,0,0,0,1.87,2.92,6.3,6.3,0,0,0,6.07,2,11.32,11.32,0,0,0,5.77-3,26.76,26.76,0,0,0,4.34-5.48l.17-.29q.15.21.3.39a5.7,5.7,0,0,0,2.83,2,3.22,3.22,0,0,0,3.12-.84,4.73,4.73,0,0,0,1.31-3.07,118.36,118.36,0,0,1,1.53-11.94c.66-3.62,1.41-7,2.22-10.09s1.65-5.89,2.52-8.43c.74-2.19,1.45-4.23,2.1-6.13a7.62,7.62,0,0,0,1.89-.29c-1.08,3.07-2,6.08-2.85,9q-.66,2.41-1.31,5.06c-.44,1.76-.8,3.51-1.08,5.18a41.52,41.52,0,0,0-.56,4.85,18.6,18.6,0,0,0,.21,4.22c.52,2.93,1.49,4.94,3,6.15a8,8,0,0,0,5.72,1.65,12.47,12.47,0,0,0,6.12-2.47,27.49,27.49,0,0,0,5.18-5,46.65,46.65,0,0,0,4-5.82,11.1,11.1,0,0,0,.66,1.34,9.79,9.79,0,0,0,2.73,3.12,10.4,10.4,0,0,0,3.73,1.75,9.49,9.49,0,0,0,2.28.27,47.33,47.33,0,0,0-6.8,4,50.09,50.09,0,0,0-10.8,10,34,34,0,0,0-5.58,10.13,21.93,21.93,0,0,0-1.31,8.11,13.47,13.47,0,0,0,2.83,7.81,9.86,9.86,0,0,0,6.2,3.46,12.82,12.82,0,0,0,1.77.13,17,17,0,0,0,6.06-1.24,28.61,28.61,0,0,0,8.34-5.27,48.65,48.65,0,0,0,8-9.23,62.25,62.25,0,0,0,6.69-13.24c.62-1.68,1.22-3.45,1.79-5.26q.71-2.23,1.42-4.59a27.06,27.06,0,0,1,5.42.22,13.81,13.81,0,0,1,4.83,1.58,4.53,4.53,0,0,0,3.41.83,3,3,0,0,0,2.16-2.06,5.26,5.26,0,0,0-.06-3A10.66,10.66,0,0,0,181.63,90a11.66,11.66,0,0,0-6-4.31,19.14,19.14,0,0,0-5.32-.9c1.25-4.73,2.5-9.59,3.72-14.48,1.38-5.49,2.92-10.93,4.56-16.11.81-2.3.12-3.69-.6-4.45a4.13,4.13,0,0,0-1.53-1,5.36,5.36,0,0,0,.52-.28c1.17-.67,1.69-2,1.55-3.95a9.79,9.79,0,0,0-1.8-4.84,12.07,12.07,0,0,0-4.65-3.95,12.39,12.39,0,0,0-7.68-.88,15.71,15.71,0,0,0-5.82,2.53,38.13,38.13,0,0,0-6.34,5.29,55.68,55.68,0,0,0-6.12,7.49,48.36,48.36,0,0,0-5,9.32c-.37.91-.71,1.88-1.08,3a5,5,0,0,0-1.28,2.09,31.69,31.69,0,0,1-1.94,4.7C136,71.13,135,73,133.9,74.93s-2.17,3.8-3.28,5.6-2.13,3.32-3,4.54l-.08.1c0-.27,0-.59.1-1a33.44,33.44,0,0,1,.88-5.74c.52-2.24,1.11-4.57,1.76-6.92s1.37-4.7,2.14-7,1.5-4.37,2.14-6.2,1.17-3.34,1.59-4.5a17.52,17.52,0,0,0,.73-2.17l0-.21a3.22,3.22,0,0,0-.65-1.78,6.77,6.77,0,0,0-1.53-1.61A7.64,7.64,0,0,0,132.6,47a3.63,3.63,0,0,0-3.08.35,15.51,15.51,0,0,1-2.32,1.06c-1.08.42-2.17.85-3.25,1.29l-1.27.49c.14-.42.29-.84.45-1.27.48-1.23,1.05-2.63,1.71-4.18A33.94,33.94,0,0,1,127.33,40a2.65,2.65,0,0,0-.38-3.29,7.51,7.51,0,0,0-2.43-1.9,10.33,10.33,0,0,0-3.13-1,5.19,5.19,0,0,0-3.41.55,12.78,12.78,0,0,0-3.94,3.9,25,25,0,0,0-2.78,5.54A22.05,22.05,0,0,0,110,50.09a13.44,13.44,0,0,0,.81,5.52c-.64,1.52-1.33,3.32-2.08,5.36-.86,2.31-1.72,4.79-2.57,7.34-.36,1.08-.7,2.17-1,3.27a2.14,2.14,0,0,0-.54.23,4.11,4.11,0,0,0-1.89,2.93,31.63,31.63,0,0,1-1.39,4.88c-.69,1.92-1.46,3.92-2.29,5.93s-1.71,4-2.63,5.92S94.72,94.85,94,96.12c0-.21,0-.45,0-.71-.13-2.35-.11-5.42.07-9.12s.45-7.64.83-11.65.88-7.86,1.49-11.5a64.26,64.26,0,0,1,2-8.78,2.14,2.14,0,0,0-.16-1.76,2.37,2.37,0,0,0-1.69-1.09,6.26,6.26,0,0,0-3.2.32A11.93,11.93,0,0,0,86.59,58l-.06.14a54.76,54.76,0,0,0-2.4,9.11c-.62,3.37-1.1,6.9-1.42,10.41A77.88,77.88,0,0,1,80.91,86c-.79,2.86-1.66,5.62-2.59,8.2s-1.9,4.92-2.88,7a26.14,26.14,0,0,1-2.61,4.54c-.13.17-.24.3-.34.41a10,10,0,0,1-.17-1.46,88.27,88.27,0,0,1,.06-9.13c.18-3.71.46-7.63.84-11.64s.87-7.87,1.49-11.51a61.4,61.4,0,0,1,2-8.78,2.16,2.16,0,0,0-.16-1.75,2.4,2.4,0,0,0-1.7-1.1,6.39,6.39,0,0,0-3.2.33,11.46,11.46,0,0,0-3.56,2.05,12,12,0,0,0-3.15,4.1l-.06.13a57.56,57.56,0,0,0-2.57,9.86A101.91,101.91,0,0,0,60.82,100a49.74,49.74,0,0,0,1.37,9.8,14.59,14.59,0,0,0,3,6A6.3,6.3,0,0,0,71.2,117.84Zm83.43-19.11c-1.07,3-2.23,6-3.45,8.72a60.33,60.33,0,0,1-4.44,8.29,25.17,25.17,0,0,1-4.94,5.7,9.83,9.83,0,0,1-5.1,2.34c-1.22.13-1.56-.27-1.67-.4s-.49-.69,0-3.2a23.6,23.6,0,0,1,3-7.66,31.31,31.31,0,0,1,5.21-6.4,38.37,38.37,0,0,1,6.71-5A41.42,41.42,0,0,1,154.63,98.73Zm3.9-12.66-.26.91-1.24.39c.06-.05.12-.09.18-.15C157.66,86.85,158.09,86.47,158.53,86.07Zm-.29-15.58a57.18,57.18,0,0,1-3.91,5.3,11,11,0,0,1-3.08,2.77c-.73.38-1,.2-1.06.11s-.62-.56-.92-3.09a19.43,19.43,0,0,1,.31-5.31A40,40,0,0,1,151.29,64a47.53,47.53,0,0,1,2.83-6.44,34.35,34.35,0,0,1,3.67-5.65,25.39,25.39,0,0,1,4.23-4.2,9.35,9.35,0,0,1,4.13-1.94,6.53,6.53,0,0,1,1-.09,2.66,2.66,0,0,1,1.42.33,16.18,16.18,0,0,1,2.12,1.5,11.8,11.8,0,0,0,2,1.4A10.17,10.17,0,0,0,170,50.52a12.18,12.18,0,0,0-3.55,5l-.35.92-.07.13c-1.18,2.37-2.44,4.79-3.75,7.21S159.59,68.47,158.24,70.49Z" style="fill:#c1272d"/><path d="M180.78,75.39a11.23,11.23,0,0,0,7.85,7.14,11.92,11.92,0,0,0,3.15.39,19.89,19.89,0,0,0,4.08-.47,26.88,26.88,0,0,0,8.46-3.38,49.09,49.09,0,0,0,7.48-5.52l.45-.41a11.07,11.07,0,0,0,1,3.24A5.55,5.55,0,0,0,215.52,79a3.2,3.2,0,0,0,3.23-.11,4.73,4.73,0,0,0,2-2.69c1.32-4.13,2.73-7.93,4.19-11.29s3-6.5,4.45-9.32,2.95-5.37,4.37-7.64q1.83-2.94,3.43-5.49a7.37,7.37,0,0,0,1.91.14c-1.74,2.74-3.35,5.45-4.8,8.09q-1.2,2.19-2.43,4.62c-.82,1.62-1.57,3.23-2.23,4.8A42,42,0,0,0,228,64.71a18.67,18.67,0,0,0-.75,4.15c-.15,3,.33,5.16,1.48,6.66a8.1,8.1,0,0,0,5.2,2.9,12.29,12.29,0,0,0,6.52-1,27.7,27.7,0,0,0,6.18-3.71,46.93,46.93,0,0,0,5.6-5.19c1.72-1.89,3.28-3.71,4.63-5.42s2.48-3.27,3.34-4.62a20.16,20.16,0,0,0,1.61-2.8,9.16,9.16,0,0,0,.63-4,5.34,5.34,0,0,0-1.07-3,3,3,0,0,0-2.89-1.13,4.09,4.09,0,0,0-2.76,2.13,31.65,31.65,0,0,1-2.95,4.13c-1.28,1.56-2.67,3.18-4.15,4.81s-3,3.19-4.46,4.71-2.83,2.76-4,3.74l-.11.08.31-.91a34.9,34.9,0,0,1,2.17-5.4c1-2.07,2.12-4.2,3.28-6.34s2.41-4.28,3.67-6.31,2.44-3.92,3.48-5.56,1.9-3,2.57-4a14.9,14.9,0,0,0,1.2-2l.07-.2a3.18,3.18,0,0,0-.23-1.88,6.66,6.66,0,0,0-1.12-1.91,7.77,7.77,0,0,0-1.79-1.59,3.6,3.6,0,0,0-3.08-.35,15.79,15.79,0,0,1-2.5.5c-1.15.16-2.31.33-3.46.52l-1.34.19c.22-.38.47-.76.72-1.14.75-1.09,1.62-2.31,2.62-3.68a32.4,32.4,0,0,1,3.49-4,2.65,2.65,0,0,0,.38-3.28,7.56,7.56,0,0,0-1.94-2.41,10.14,10.14,0,0,0-2.82-1.68,5.19,5.19,0,0,0-3.45-.24,12.57,12.57,0,0,0-4.71,2.9,24.79,24.79,0,0,0-4,4.77A22,22,0,0,0,230.94,29a13.35,13.35,0,0,0-.46,5.56c-1,1.33-2,2.92-3.24,4.74-1.37,2.09-2.78,4.3-4.17,6.58l-.82,1.37-.21.36a15.14,15.14,0,0,0-2.12,2.5c-.93,1.26-2.09,2.74-3.44,4.4s-2.9,3.53-4.6,5.5a63.33,63.33,0,0,1-5.29,5.45,37.85,37.85,0,0,1-5.72,4.32,16.54,16.54,0,0,1-5.58,2.24,3.42,3.42,0,0,1-2.7-.4,3.58,3.58,0,0,1-.88-2.55,16.32,16.32,0,0,1,.61-4.47,5.05,5.05,0,0,0,2.07.92,6.78,6.78,0,0,0,4.17-.65,23.92,23.92,0,0,0,5.32-3.15,45.48,45.48,0,0,0,5-4.46c1.52-1.58,3-3.2,4.31-4.8s2.46-3,3.38-4.29a25.25,25.25,0,0,0,3.7-6.94,34,34,0,0,0,1.35-5,7.78,7.78,0,0,0,0-2.67,8.28,8.28,0,0,0-1.19-3.13,7.31,7.31,0,0,0-2.72-2.53,7.52,7.52,0,0,0-4.67-.68,25.68,25.68,0,0,0-9.86,3.32,38.44,38.44,0,0,0-8.25,6.49,51.64,51.64,0,0,0-6.62,8.41,67.35,67.35,0,0,0-4.84,9.15,52.17,52.17,0,0,0-2.93,8.74,26.28,26.28,0,0,0-.77,7.35A17.68,17.68,0,0,0,180.78,75.39Zm14.12-17.7A70.56,70.56,0,0,1,198.54,51a61.12,61.12,0,0,1,4.25-6.14,32.43,32.43,0,0,1,4.38-4.6A11,11,0,0,1,211,37.93a4.37,4.37,0,0,1,.51-.12s0,.09,0,.15a10.32,10.32,0,0,1-.83,2.32,29.91,29.91,0,0,1-1.65,3c0,.08-.31.49-1.75,2.38-1.06,1.39-2.4,3-4,4.69S200,53.77,198,55.48a22.83,22.83,0,0,1-3.23,2.42A2,2,0,0,0,194.9,57.69Z" style="fill:#c1272d"/><path d="M263.92,143.93h0a5.38,5.38,0,0,0-1.29-2.91,3,3,0,0,0-3-.91,4.1,4.1,0,0,0-2.6,2.32,32.18,32.18,0,0,1-2.64,4.34c-1.17,1.66-2.44,3.37-3.78,5.1s-2.74,3.41-4.11,5-2.49,2.81-3.52,3.85q.06-.31.15-.69c.5-2.31,1.34-5.27,2.49-8.78s2.47-7.21,3.91-11,3-7.37,4.5-10.69a62.86,62.86,0,0,1,4.27-7.93,2.19,2.19,0,0,0,.31-1.74,2.43,2.43,0,0,0-1.34-1.51,6.35,6.35,0,0,0-3.17-.53,11.46,11.46,0,0,0-4,1A11.79,11.79,0,0,0,246,122l-.1.12a55.59,55.59,0,0,0-4.74,8.14c-1.5,3.09-2.9,6.37-4.14,9.66a74.82,74.82,0,0,1-4,7.52c-1.53,2.57-3.1,5-4.68,7.23s-3.14,4.24-4.63,6a26.56,26.56,0,0,1-3.73,3.68,5,5,0,0,1-.44.3,11.94,11.94,0,0,1,.23-1.45,88.48,88.48,0,0,1,2.49-8.78c1.16-3.53,2.47-7.23,3.91-11s2.94-7.35,4.5-10.7a63.11,63.11,0,0,1,4.26-7.93,2.13,2.13,0,0,0,.32-1.73A2.39,2.39,0,0,0,234,121.5a6.3,6.3,0,0,0-3.17-.54,11.5,11.5,0,0,0-4,1,11.91,11.91,0,0,0-4.14,3.11l-.09.12a57.22,57.22,0,0,0-5.1,8.81,101.16,101.16,0,0,0-4.38,10.65c-.27.78-.54,1.57-.79,2.35a6,6,0,0,0-.64,1.19,33.21,33.21,0,0,1-2.25,4.56c-1,1.75-2.14,3.58-3.35,5.42s-2.45,3.66-3.69,5.38-2.34,3.17-3.31,4.33l0,0c0-.22.09-.47.16-.75q2-8.83,3.74-17.11c1.17-5.46,2.56-11,4.11-16.31a8.34,8.34,0,0,0,.4-2.6,5.84,5.84,0,0,0-.64-2.78,4.71,4.71,0,0,0-2.27-2.1,7.14,7.14,0,0,0-3.94-.36,17.56,17.56,0,0,0-7.26,2.91,31.58,31.58,0,0,0-6.15,5.6c-.45.53-.9,1.07-1.34,1.64.09-.21.18-.41.26-.61,1.18-2.69-.15-4-.77-4.5a5.23,5.23,0,0,0-4.12-.75,12,12,0,0,0-4.53,2,10.32,10.32,0,0,0-3.68,4.4,35.44,35.44,0,0,0-1.74,4.57c-.62,1.92-1.28,4.08-1.95,6.43s-1.3,4.77-1.91,7.35c-.28.49-.59,1.1-.94,1.84-.66,1.42-1.51,3.1-2.5,5s-2.15,4-3.44,6.29a61.47,61.47,0,0,1-4.12,6.38,37.67,37.67,0,0,1-4.76,5.37,16.84,16.84,0,0,1-5,3.29,3.4,3.4,0,0,1-2.73.13,3.49,3.49,0,0,1-1.36-2.32,16.06,16.06,0,0,1-.28-4.51,4.9,4.9,0,0,0,2.21.5,6.62,6.62,0,0,0,4-1.46,23.17,23.17,0,0,0,4.6-4.13,43.63,43.63,0,0,0,4-5.35c1.19-1.85,2.3-3.72,3.29-5.55s1.82-3.47,2.48-4.87A25.29,25.29,0,0,0,165.1,148a35.1,35.1,0,0,0,.34-5.19,7.72,7.72,0,0,0-.56-2.62,8.34,8.34,0,0,0-1.78-2.83,7.08,7.08,0,0,0-7.88-1.7,25.76,25.76,0,0,0-9,5.2,38.41,38.41,0,0,0-6.83,8,51.85,51.85,0,0,0-4.83,9.55,66.55,66.55,0,0,0-2.14,6.59h0a2.93,2.93,0,0,0-1.64.51,4.07,4.07,0,0,0-1.56,3,41.45,41.45,0,0,1-1,5.07c-.52,2-1.1,4-1.76,6.11s-1.34,4.13-2.08,6.14-1.41,3.68-2,5.06v0c0-.23,0-.49,0-.78l-1-17.43c-.32-5.57-.42-11.25-.3-16.87a8.22,8.22,0,0,0-.31-2.6,5.87,5.87,0,0,0-1.35-2.51,4.69,4.69,0,0,0-2.75-1.42,7.18,7.18,0,0,0-4,.74,16.49,16.49,0,0,0-5.83,4.32,29.92,29.92,0,0,0-4.24,6.35,46.68,46.68,0,0,0-2.34,5.52,9.6,9.6,0,0,0-.3-1.78,6,6,0,0,0-1.36-2.5,4.69,4.69,0,0,0-2.75-1.42,7,7,0,0,0-3.89.7,17.23,17.23,0,0,0-6,4.48,29.51,29.51,0,0,0-4.33,6.61c-.31.65-.62,1.32-.91,2l0-.25c.42-2.9-1.22-3.85-1.94-4.12a5.22,5.22,0,0,0-4.17.37,12.08,12.08,0,0,0-3.84,3.11,10.38,10.38,0,0,0-2.38,5.22,36.62,36.62,0,0,0-.46,4.87c-.09,2-.14,4.26-.17,6.72s0,5.09.12,7.82.29,5.42.54,8a69,69,0,0,0,1.09,7.16,24.08,24.08,0,0,0,1.76,5.55,14.75,14.75,0,0,0,3.59,5,8.45,8.45,0,0,0,3.76,1.82,5.3,5.3,0,0,0,1,.08,3.5,3.5,0,0,0,3.44-2.32c.6-1.52.41-3.45-.6-5.91l-.06-.13a5.33,5.33,0,0,1-.31-.74l-.39-1.06a38.1,38.1,0,0,1,.36-9.29,102.65,102.65,0,0,1,2.22-10.9c.93-3.57,2-7,3.11-10.08.7-1.93,1.36-3.59,2-4.95-.1,1.87-.13,4.13-.06,6.73.06,3,.3,6.3.69,10A82.55,82.55,0,0,0,92,208.73a11,11,0,0,0,1,2.51,9,9,0,0,0,1.79,2.33,7.29,7.29,0,0,0,2.43,1.5,4.61,4.61,0,0,0,3.19,0c1.83-.62,2.93-1.58,3.28-2.85a3.79,3.79,0,0,0-.19-3,6.74,6.74,0,0,1-.61-1.43l.19-.08a17,17,0,0,1-.9-5.56,46.84,46.84,0,0,1,.5-7.36c.37-2.63.9-5.36,1.57-8.14s1.4-5.46,2.18-8,1.58-4.81,2.4-6.88q.57-1.44,1.08-2.61c-.08,1.51-.12,3.28-.14,5.27,0,2.6.06,5.54.24,8.73a78.7,78.7,0,0,0,1.32,10.25,16.6,16.6,0,0,0,3.66,7.87c1.31,1.43,3.67,2.91,7.48,1.89a11.15,11.15,0,0,0,5.43-3.53,26.1,26.1,0,0,0,3.79-5.82,44.44,44.44,0,0,0,1.74-4.11,11.62,11.62,0,0,0,3.33,3.22,11.49,11.49,0,0,0,5.43,1.71,15.44,15.44,0,0,0,7.07-1.49,27.22,27.22,0,0,0,7.64-5,50.42,50.42,0,0,0,6.25-6.88c.85-1.13,1.66-2.29,2.45-3.49a12.3,12.3,0,0,0,1.7,3.9,8.33,8.33,0,0,0,3.15,2.75,3.64,3.64,0,0,0,4.82-1c1-1.3,1.31-3.22,1-5.85l0-.16a5.18,5.18,0,0,1-.12-.6,28.51,28.51,0,0,1,1.3-5.78,57.25,57.25,0,0,1,2.69-6.71c1.1-2.31,2.31-4.64,3.59-6.94s2.61-4.48,3.94-6.48,2.65-3.86,3.84-5.45q.78-1,1.47-1.89c-.48,1.45-1,3.16-1.55,5.09-.71,2.49-1.4,5.35-2.05,8.48a84.45,84.45,0,0,0-1.41,10.18,16.38,16.38,0,0,0,1.34,8.61c.89,1.72,2.77,3.78,6.71,3.8a11.08,11.08,0,0,0,6.18-1.95,26.36,26.36,0,0,0,5.21-4.6c.69-.79,1.38-1.64,2.05-2.54A9.82,9.82,0,0,0,210,172a6.27,6.27,0,0,0,5.32,3.55,12.44,12.44,0,0,0,5.55-.83,20.34,20.34,0,0,0,5.15-2.93,36.23,36.23,0,0,0,4.64-4.3c.57-.62,1.11-1.26,1.64-1.91a12.46,12.46,0,0,0,1,3.31,6.3,6.3,0,0,0,5.32,3.56,11.24,11.24,0,0,0,6.37-1.4,26.36,26.36,0,0,0,5.64-4.12,42.51,42.51,0,0,0,4.91-5.57c1.45-2,2.77-3.91,3.92-5.75s2.07-3.46,2.78-4.84a21.71,21.71,0,0,0,1.36-2.88A9.32,9.32,0,0,0,263.92,143.93ZM143.46,169.09a70.66,70.66,0,0,1,2.24-7.31,59.51,59.51,0,0,1,3-6.85,32.75,32.75,0,0,1,3.39-5.38,11.3,11.3,0,0,1,3.32-3,3.32,3.32,0,0,1,.47-.21.86.86,0,0,0,0,.15,10.25,10.25,0,0,1-.37,2.44,26.93,26.93,0,0,1-1,3.25c0,.09-.21.54-1.25,2.67-.77,1.57-1.77,3.38-3,5.38a72.36,72.36,0,0,1-4.15,6.08,22.77,22.77,0,0,1-2.69,3Z" style="fill:#c1272d"/><path d="M296,165.46h111.6a1.54,1.54,0,0,1,1.54,1.54v9.29a6.84,6.84,0,0,1-6.84,6.84H301.93a7.49,7.49,0,0,1-7.49-7.49V167A1.51,1.51,0,0,1,296,165.46Z" style="fill:#ffb249"/><path d="M351.61,97.14h-54.4c-1.72,0-3-1.81-2.73-3.8,1.56-10.9,10.12-41.47,57.13-41.47S408,82.25,409.94,93.24c.36,2-.95,3.9-2.72,3.9Z" style="fill:#ffb249"/><path d="M310.65,85.53c0-1.75,1.42-6,3.17-6s3.17,4.21,3.17,6a3.17,3.17,0,1,1-6.34,0Z" style="fill:#f0ecd2"/><path d="M329.49,85.53c0-1.75,1.42-6,3.17-6s3.17,4.21,3.17,6a3.17,3.17,0,1,1-6.34,0Z" style="fill:#f0ecd2"/><path d="M348.33,85.53c0-1.75,1.42-6,3.17-6s3.17,4.21,3.17,6a3.17,3.17,0,1,1-6.34,0Z" style="fill:#f0ecd2"/><path d="M367.17,85.53c0-1.75,1.42-6,3.17-6s3.17,4.21,3.17,6a3.17,3.17,0,1,1-6.34,0Z" style="fill:#f0ecd2"/><path d="M386,85.53c0-1.75,1.42-6,3.17-6s3.17,4.21,3.17,6a3.17,3.17,0,1,1-6.34,0Z" style="fill:#f0ecd2"/><path d="M319.24,69.37c0-1.76,1.42-6,3.17-6s3.18,4.21,3.18,6a3.18,3.18,0,0,1-6.35,0Z" style="fill:#f0ecd2"/><path d="M338.09,69.37c0-1.76,1.41-6,3.17-6s3.17,4.21,3.17,6a3.17,3.17,0,0,1-6.34,0Z" style="fill:#f0ecd2"/><path d="M356.93,69.37c0-1.76,1.42-6,3.17-6s3.17,4.21,3.17,6a3.17,3.17,0,1,1-6.34,0Z" style="fill:#f0ecd2"/><path d="M375.77,69.37c0-1.76,1.42-6,3.17-6s3.17,4.21,3.17,6a3.17,3.17,0,0,1-6.34,0Z" style="fill:#f0ecd2"/><rect x="294.19" y="104.55" width="115.61" height="13.17" rx="6.59" style="fill:#8cc63f"/><rect x="294.19" y="125.03" width="115.61" height="13.17" rx="6.59" style="fill:#ed1c24"/><rect x="294.19" y="145.52" width="115.61" height="13.17" rx="6.59" style="fill:#81450f"/></svg>